<?xml version="1.0" encoding="UTF-8"?>
<!DOCTYPE svg PUBLIC "-//W3C//DTD SVG 1.1//EN" "http://www.w3.org/Graphics/SVG/1.1/DTD/svg11.dtd">
<!-- Creator: CorelDRAW X7 -->
<svg xmlns="http://www.w3.org/2000/svg" xml:space="preserve" width="2480px" height="2480px" version="1.1" style="shape-rendering:geometricPrecision; text-rendering:geometricPrecision; image-rendering:optimizeQuality; fill-rule:evenodd; clip-rule:evenodd"
viewBox="0 0 2480 2480"
 xmlns:xlink="http://www.w3.org/1999/xlink">
 <defs>
  <style type="text/css">
   <![CDATA[
    .str0 {stroke:black;stroke-width:2.3619}
    .str2 {stroke:red;stroke-width:2.3619}
    .str1 {stroke:#FFF400;stroke-width:2.3619}
    .fil0 {fill:black}
    .fil2 {fill:red}
    .fil1 {fill:#FFF400}
   ]]>
  </style>
 </defs>
 <g id="Layer_x0020_1">
  <metadata id="CorelCorpID_0Corel-Layer"/>
  <g id="_457673416">
   <path class="fil0 str0" d="M1219 1884c-231,5 -472,61 -714,228 -59,-50 -114,-106 -162,-167 215,-170 481,-276 876,-289l0 228z"/>
   <path class="fil0 str0" d="M771 2280c-81,-37 -157,-83 -227,-137 238,-163 484,-207 675,-212l0 223c-113,0 -289,34 -448,126z"/>
   <path class="fil0 str0" d="M1219 2380c-138,-2 -270,-30 -392,-77 115,-58 241,-96 392,-102l0 179z"/>
   <path class="fil0 str0" d="M1656 2303c-121,48 -253,75 -390,77l0 -179c150,6 276,44 390,102z"/>
   <path class="fil0 str0" d="M1266 1931c191,6 436,49 674,213 -70,53 -146,99 -227,136 -159,-91 -335,-125 -447,-126l0 -223z"/>
   <path class="fil0 str0" d="M1266 1656c394,13 660,120 875,290 -48,61 -103,117 -163,167 -241,-168 -481,-224 -712,-229l0 -228z"/>
   <path class="fil0 str0" d="M1116 1613c-348,25 -614,141 -802,294 -137,-189 -218,-421 -218,-672 0,-75 7,-147 21,-218 240,-6 779,112 999,596z"/>
   <path class="fil0 str0" d="M2368 1017c13,71 20,143 20,218 0,251 -81,484 -218,673 -188,-154 -453,-269 -801,-295 219,-484 758,-602 999,-596z"/>
  </g>
  <path class="fil1 str1" d="M1242 89c63,0 114,51 114,114 0,63 -51,114 -114,114 -63,0 -114,-51 -114,-114 0,-63 51,-114 114,-114z"/>
  <path class="fil2 str2" d="M1592 143c331,106 596,358 720,680 -280,22 -823,168 -1070,543 -246,-375 -789,-522 -1070,-543 126,-325 395,-579 731,-683l-36 274c252,47 253,311 267,605 29,2 54,-2 83,0 1,-140 -2,-276 0,-416 22,0 35,0 57,0 2,139 -1,277 0,416 22,1 57,-1 79,0 14,-291 35,-560 264,-605l-25 -271z"/>
 </g>
</svg>
